<?xml version="1.0" encoding="utf-8"?>
<!-- Generator: Adobe Illustrator 16.0.3, SVG Export Plug-In . SVG Version: 6.00 Build 0)  -->
<!DOCTYPE svg PUBLIC "-//W3C//DTD SVG 1.1//EN" "http://www.w3.org/Graphics/SVG/1.1/DTD/svg11.dtd">
<svg version="1.1" id="eF5R0PMvZcY1" shape-rendering="geometricPrecision" text-rendering="geometricPrecision"
	 xmlns="http://www.w3.org/2000/svg" xmlns:xlink="http://www.w3.org/1999/xlink" x="0px" y="0px" width="612px" height="612px"
	 viewBox="0 90 612 612" enable-background="new 0 90 612 612" xml:space="preserve">
<linearGradient id="SVGID_1_" gradientUnits="userSpaceOnUse" x1="0.4883" y1="792.0137" x2="1.4812" y2="791.8988" gradientTransform="matrix(573.75 0 0 -573.75 -258.875 454781.375)">
	<stop  offset="0" style="stop-color:#66F6DC"/>
	<stop  offset="1" style="stop-color:#099990"/>
</linearGradient>
<path fill="url(#SVGID_1_)" d="M141.525,109.125h328.951c67.6,0,122.399,54.8,122.399,122.4v328.951
	c0,67.6-54.8,122.399-122.399,122.399H141.525c-67.6,0-122.4-54.8-122.4-122.399V231.525
	C19.125,163.925,73.925,109.125,141.525,109.125z"/>
<g enable-background="new    ">
	<path fill="#FFFFFF" d="M230.565,436.979v45.039c-24.483,13.008-50.109,19.508-76.882,19.508c-18.36,0-34.954-2.819-49.773-8.463
		c-14.823-5.639-26.778-13.196-35.859-22.663c-9.086-9.467-16.065-20.081-20.942-31.843c-4.877-11.763-7.315-24.049-7.315-36.863
		c0-12.623,2.483-24.86,7.459-36.721c4.971-11.856,12.192-22.614,21.659-32.273c9.467-9.655,21.897-17.401,37.294-23.237
		c15.393-5.832,32.654-8.75,51.781-8.75c27.729,0,51.158,5.737,70.285,17.212v45.04c-3.828-2.869-8.319-5.688-13.483-8.463
		c-5.164-2.771-12.766-5.594-22.806-8.463c-10.041-2.869-20.225-4.303-30.552-4.303c-20.655,0-37.63,5.451-50.92,16.352
		C97.213,368.99,90.57,383.333,90.57,401.12c0,18.553,6.742,33.184,20.225,43.892c13.483,10.713,29.88,16.065,49.199,16.065
		c17.02,0,34.327-4.492,51.924-13.483L230.565,436.979z"/>
	<path fill="#FFFFFF" d="M582.27,303.295l-86.35,198.231h-20.941l-60.244-127.66l-60.53,127.66h-20.942L247.2,303.295h51.638
		l46.186,108.152l50.203-108.152h39.876l49.056,108.152l46.474-108.152H582.27z"/>
</g>
</svg>
