<svg id="ejiSsw9y4Er1" xmlns="http://www.w3.org/2000/svg" xmlns:xlink="http://www.w3.org/1999/xlink" viewBox="0 0 300 300" shape-rendering="geometricPrecision" text-rendering="geometricPrecision"><path d="M15.46845,150C15.46845,75.70038,75.70028,15.46863,150,15.46863c18.37783,0,35.89497,3.68502,51.85284,10.35646h-51.85284v258.70628C75.70028,284.53137,15.46845,224.29962,15.46845,150Zm269.0631.00001c0,22.79615-5.66991,44.26802-15.67642,63.08233v-126.16467c10.00652,18.8143,15.67642,40.28617,15.67642,63.08233v.00001Z" fill="#262626" stroke-width="0"/><path d="M15.46845,150C15.46845,75.70038,75.70028,15.46863,150,15.46863c18.37783,0,35.89497,3.68502,51.85284,10.35646h-51.85284v258.70628C75.70028,284.53137,15.46845,224.29962,15.46845,150Zm269.0631,0c0,22.79615-5.66991,44.26803-15.67642,63.08234v-126.16467c10.00652,18.8143,15.67642,40.28618,15.67642,63.08234v-.00001Z" transform="matrix(-1 0 0 1 300 0)" fill="#dadada" stroke-width="0"/><ellipse rx="134.53155" ry="134.53155" transform="matrix(.95712 0 0 0.95712 150.000003 150)" fill="none" stroke="#dadada" stroke-width="30"/></svg>
