<?xml version="1.0" encoding="utf-8"?>
<!-- Generator: Adobe Illustrator 16.0.3, SVG Export Plug-In . SVG Version: 6.00 Build 0)  -->
<!DOCTYPE svg PUBLIC "-//W3C//DTD SVG 1.1//EN" "http://www.w3.org/Graphics/SVG/1.1/DTD/svg11.dtd">
<svg version="1.1" id="exdrR6qDA3a1" shape-rendering="geometricPrecision" text-rendering="geometricPrecision"
	 xmlns="http://www.w3.org/2000/svg" xmlns:xlink="http://www.w3.org/1999/xlink" x="0px" y="0px" width="612px" height="792px"
	 viewBox="0 0 612 792" enable-background="new 0 0 612 792" xml:space="preserve">
<path fill="#66F6DC" d="M79.807,186.696h452.386c27.257,0,49.353,22.096,49.353,49.353c0,27.257-22.096,49.353-49.353,49.353H79.807
	c-27.257,0-49.354-22.096-49.354-49.353C30.454,208.792,52.55,186.696,79.807,186.696L79.807,186.696z M79.807,506.598h452.386
	c27.257,0,49.353,22.096,49.353,49.353s-22.096,49.354-49.353,49.354H79.807c-27.257,0-49.354-22.097-49.354-49.354
	S52.55,506.598,79.807,506.598L79.807,506.598z M79.807,346.647h452.386c27.257,0,49.353,22.096,49.353,49.353
	s-22.096,49.354-49.353,49.354H79.807c-27.257,0-49.354-22.097-49.354-49.354S52.55,346.647,79.807,346.647L79.807,346.647z"/>
</svg>
